<svg width="122" height="25" viewBox="0 0 122 25" fill="none" xmlns="http://www.w3.org/2000/svg">
<path d="M33.7083 14.2942H30.1341L29.3314 16.5208H28.1712L31.429 7.9895H32.4134L35.6771 16.5208H34.5228L33.7083 14.2942ZM30.474 13.3684H33.3744L31.9212 9.37817L30.474 13.3684ZM36.5119 13.2981C36.5119 12.3254 36.7424 11.5442 37.2033 10.9543C37.6643 10.3606 38.2678 10.0637 39.0139 10.0637C39.7561 10.0637 40.344 10.3176 40.7776 10.8254V7.52075H41.8615V16.5208H40.8654L40.8127 15.8411C40.3791 16.3723 39.7756 16.6379 39.0022 16.6379C38.2678 16.6379 37.6682 16.3372 37.2033 15.7356C36.7424 15.134 36.5119 14.3489 36.5119 13.3801V13.2981ZM37.5959 13.4211C37.5959 14.1399 37.7444 14.7024 38.0412 15.1086C38.3381 15.5149 38.7483 15.718 39.2717 15.718C39.9592 15.718 40.4612 15.4094 40.7776 14.7922V11.8801C40.4533 11.2825 39.9553 10.9836 39.2834 10.9836C38.7522 10.9836 38.3381 11.1887 38.0412 11.5989C37.7444 12.009 37.5959 12.6165 37.5959 13.4211ZM43.4054 13.2981C43.4054 12.3254 43.6358 11.5442 44.0968 10.9543C44.5577 10.3606 45.1612 10.0637 45.9073 10.0637C46.6495 10.0637 47.2374 10.3176 47.671 10.8254V7.52075H48.755V16.5208H47.7589L47.7062 15.8411C47.2726 16.3723 46.669 16.6379 45.8956 16.6379C45.1612 16.6379 44.5616 16.3372 44.0968 15.7356C43.6358 15.134 43.4054 14.3489 43.4054 13.3801V13.2981ZM44.4894 13.4211C44.4894 14.1399 44.6378 14.7024 44.9347 15.1086C45.2315 15.5149 45.6417 15.718 46.1651 15.718C46.8526 15.718 47.3546 15.4094 47.671 14.7922V11.8801C47.3468 11.2825 46.8487 10.9836 46.1769 10.9836C45.6456 10.9836 45.2315 11.1887 44.9347 11.5989C44.6378 12.009 44.4894 12.6165 44.4894 13.4211ZM60.3856 16.5208H59.2547L54.9598 9.94653V16.5208H53.829V7.9895H54.9598L59.2665 14.593V7.9895H60.3856V16.5208ZM64.9646 16.6379C64.1052 16.6379 63.406 16.3567 62.8669 15.7942C62.3279 15.2278 62.0583 14.4719 62.0583 13.5266V13.3274C62.0583 12.6985 62.1775 12.1379 62.4158 11.6458C62.6579 11.1497 62.9939 10.7629 63.4236 10.4856C63.8572 10.2043 64.3259 10.0637 64.8298 10.0637C65.654 10.0637 66.2947 10.3352 66.7517 10.8782C67.2087 11.4211 67.4372 12.1985 67.4372 13.2102V13.6614H63.1423C63.1579 14.2864 63.3396 14.7922 63.6872 15.179C64.0388 15.5618 64.4841 15.7532 65.0232 15.7532C65.406 15.7532 65.7302 15.675 65.9958 15.5188C66.2615 15.3625 66.4939 15.1555 66.6931 14.8977L67.3552 15.4133C66.824 16.2297 66.0271 16.6379 64.9646 16.6379ZM64.8298 10.9543C64.3923 10.9543 64.0251 11.1145 63.7283 11.4348C63.4314 11.7512 63.2478 12.1965 63.1775 12.7708H66.3533V12.6887C66.322 12.1379 66.1736 11.7122 65.9079 11.4114C65.6423 11.1067 65.2829 10.9543 64.8298 10.9543ZM74.4303 15.0266L75.649 10.1809H76.733L74.8873 16.5208H74.0084L72.4674 11.7161L70.9674 16.5208H70.0885L68.2487 10.1809H69.3268L70.5748 14.927L72.0514 10.1809H72.9244L74.4303 15.0266ZM83.7406 12.718C82.7758 12.4407 82.0726 12.1008 81.6312 11.6985C81.1937 11.2922 80.975 10.7922 80.975 10.1985C80.975 9.52661 81.2426 8.97192 81.7777 8.53442C82.3168 8.09302 83.016 7.87231 83.8754 7.87231C84.4613 7.87231 84.9828 7.9856 85.4398 8.21216C85.9008 8.43872 86.2562 8.75122 86.5062 9.14966C86.7601 9.5481 86.8871 9.98364 86.8871 10.4563H85.7562C85.7562 9.94067 85.5922 9.53638 85.264 9.24341C84.9359 8.94653 84.473 8.7981 83.8754 8.7981C83.3207 8.7981 82.8871 8.92114 82.5746 9.16724C82.266 9.40942 82.1117 9.74731 82.1117 10.1809C82.1117 10.5286 82.2582 10.8235 82.5512 11.0657C82.848 11.304 83.35 11.5227 84.057 11.7219C84.7679 11.9211 85.3226 12.1418 85.7211 12.384C86.1234 12.6223 86.4203 12.9016 86.6117 13.2219C86.807 13.5422 86.9047 13.9192 86.9047 14.3528C86.9047 15.0442 86.6351 15.5989 86.0961 16.0168C85.557 16.4309 84.8363 16.6379 83.934 16.6379C83.348 16.6379 82.8012 16.5266 82.2933 16.304C81.7855 16.0774 81.3929 15.7688 81.1156 15.3782C80.8422 14.9875 80.7054 14.5442 80.7054 14.0481H81.8363C81.8363 14.5637 82.0258 14.9719 82.4047 15.2727C82.7875 15.5696 83.2972 15.718 83.934 15.718C84.5277 15.718 84.9828 15.5969 85.2992 15.3547C85.6156 15.1125 85.7738 14.7825 85.7738 14.3645C85.7738 13.9465 85.6273 13.6243 85.3344 13.3977C85.0414 13.1672 84.5101 12.9407 83.7406 12.718ZM90.9329 16.6379C90.0735 16.6379 89.3743 16.3567 88.8352 15.7942C88.2962 15.2278 88.0266 14.4719 88.0266 13.5266V13.3274C88.0266 12.6985 88.1458 12.1379 88.384 11.6458C88.6262 11.1497 88.9622 10.7629 89.3919 10.4856C89.8255 10.2043 90.2942 10.0637 90.7981 10.0637C91.6223 10.0637 92.263 10.3352 92.72 10.8782C93.177 11.4211 93.4055 12.1985 93.4055 13.2102V13.6614H89.1106C89.1262 14.2864 89.3079 14.7922 89.6555 15.179C90.0071 15.5618 90.4524 15.7532 90.9915 15.7532C91.3743 15.7532 91.6985 15.675 91.9641 15.5188C92.2297 15.3625 92.4622 15.1555 92.6614 14.8977L93.3235 15.4133C92.7922 16.2297 91.9954 16.6379 90.9329 16.6379ZM90.7981 10.9543C90.3606 10.9543 89.9934 11.1145 89.6965 11.4348C89.3997 11.7512 89.2161 12.1965 89.1458 12.7708H92.3215V12.6887C92.2903 12.1379 92.1419 11.7122 91.8762 11.4114C91.6106 11.1067 91.2512 10.9543 90.7981 10.9543ZM97.3283 15.7532C97.715 15.7532 98.0529 15.636 98.3419 15.4016C98.631 15.1672 98.7912 14.8743 98.8224 14.5227H99.8478C99.8283 14.886 99.7033 15.2317 99.4728 15.5598C99.2423 15.8879 98.9337 16.1497 98.547 16.345C98.1642 16.5403 97.7579 16.6379 97.3283 16.6379C96.465 16.6379 95.7775 16.3508 95.2658 15.7766C94.7579 15.1985 94.504 14.4094 94.504 13.4094V13.2278C94.504 12.6106 94.6173 12.0618 94.8439 11.5813C95.0704 11.1008 95.3947 10.7278 95.8165 10.4622C96.2423 10.1965 96.7443 10.0637 97.3224 10.0637C98.0333 10.0637 98.6232 10.2766 99.0919 10.7024C99.5646 11.1282 99.8165 11.6809 99.8478 12.3606H98.8224C98.7912 11.9504 98.6349 11.6145 98.3537 11.3528C98.0763 11.0872 97.7326 10.9543 97.3224 10.9543C96.7716 10.9543 96.3439 11.1536 96.0392 11.552C95.7384 11.9465 95.588 12.5188 95.588 13.2688V13.4739C95.588 14.2043 95.7384 14.7668 96.0392 15.1614C96.34 15.5559 96.7697 15.7532 97.3283 15.7532ZM102.657 8.64575V10.1809H103.841V11.0188H102.657V14.9504C102.657 15.2043 102.71 15.3958 102.815 15.5247C102.921 15.6497 103.101 15.7122 103.355 15.7122C103.48 15.7122 103.651 15.6887 103.87 15.6418V16.5208C103.585 16.5989 103.308 16.6379 103.038 16.6379C102.554 16.6379 102.188 16.4915 101.942 16.1985C101.696 15.9055 101.573 15.4895 101.573 14.9504V11.0188H100.419V10.1809H101.573V8.64575H102.657ZM106.41 16.5208H105.326V10.1809H106.41V16.5208ZM105.238 8.49927C105.238 8.32349 105.291 8.17505 105.396 8.05396C105.506 7.93286 105.666 7.87231 105.877 7.87231C106.088 7.87231 106.248 7.93286 106.357 8.05396C106.467 8.17505 106.521 8.32349 106.521 8.49927C106.521 8.67505 106.467 8.82153 106.357 8.93872C106.248 9.05591 106.088 9.1145 105.877 9.1145C105.666 9.1145 105.506 9.05591 105.396 8.93872C105.291 8.82153 105.238 8.67505 105.238 8.49927ZM107.983 13.2922C107.983 12.6711 108.104 12.1125 108.346 11.6165C108.593 11.1204 108.932 10.7375 109.366 10.468C109.803 10.1985 110.302 10.0637 110.86 10.0637C111.723 10.0637 112.421 10.3625 112.952 10.9602C113.487 11.5579 113.755 12.3528 113.755 13.345V13.4211C113.755 14.0383 113.636 14.593 113.397 15.0852C113.163 15.5735 112.825 15.9543 112.384 16.2278C111.946 16.5012 111.442 16.6379 110.872 16.6379C110.012 16.6379 109.315 16.3391 108.78 15.7415C108.249 15.1438 107.983 14.3528 107.983 13.3684V13.2922ZM109.073 13.4211C109.073 14.1243 109.235 14.6887 109.559 15.1145C109.887 15.5403 110.325 15.7532 110.872 15.7532C111.423 15.7532 111.86 15.5383 112.184 15.1086C112.509 14.675 112.671 14.0696 112.671 13.2922C112.671 12.5969 112.505 12.0344 112.173 11.6047C111.845 11.1711 111.407 10.9543 110.86 10.9543C110.325 10.9543 109.893 11.1672 109.565 11.593C109.237 12.0188 109.073 12.6282 109.073 13.4211ZM116.259 10.1809L116.295 10.9778C116.779 10.3684 117.412 10.0637 118.193 10.0637C119.533 10.0637 120.209 10.8196 120.22 12.3313V16.5208H119.136V12.3254C119.132 11.8684 119.027 11.5305 118.82 11.3118C118.617 11.093 118.298 10.9836 117.865 10.9836C117.513 10.9836 117.205 11.0774 116.939 11.2649C116.673 11.4524 116.466 11.6985 116.318 12.0032V16.5208H115.234V10.1809H116.259Z" fill="#666666"/>
<path fill-rule="evenodd" clip-rule="evenodd" d="M18.0312 18.0312C21.3507 14.7117 21.3507 9.32983 18.0312 6.01034C14.7117 2.69086 9.32985 2.6909 6.01041 6.01034C2.69097 9.32978 2.69092 14.7117 6.01041 18.0312C9.32989 21.3506 14.7118 21.3506 18.0312 18.0312ZM17.3241 17.3241C20.2531 14.3951 20.253 9.64635 17.3241 6.71745C14.3952 3.78855 9.64646 3.78851 6.71751 6.71745C3.78857 9.64639 3.78861 14.3952 6.71751 17.3241C9.64641 20.253 14.3952 20.253 17.3241 17.3241Z" fill="#666666"/>
<path d="M7.52082 12.0207C7.52082 12.2969 7.74468 12.5207 8.02082 12.5207H11.5208V16.0207C11.5208 16.2969 11.7447 16.5207 12.0208 16.5207C12.297 16.5207 12.5208 16.2969 12.5208 16.0207V12.5207L16.0208 12.5207C16.297 12.5207 16.5208 12.2969 16.5208 12.0207C16.5208 11.7446 16.297 11.5207 16.0208 11.5207H12.5208L12.5208 8.02075C12.5208 7.7446 12.297 7.52075 12.0208 7.52075C11.7447 7.52075 11.5208 7.7446 11.5208 8.02075V11.5207H8.02082C7.74468 11.5207 7.52082 11.7446 7.52082 12.0207Z" fill="#666666"/>
<line x1="28.5205" y1="19.2603" x2="120.001" y2="19.2603" stroke="#666666" stroke-dasharray="1 1"/>
</svg>
