<svg width="86" height="25" viewBox="0 0 86 25" fill="none" xmlns="http://www.w3.org/2000/svg">
<path fill-rule="evenodd" clip-rule="evenodd" d="M18.0312 18.0312C21.3507 14.7117 21.3507 9.32983 18.0312 6.01034C14.7117 2.69086 9.32985 2.6909 6.01041 6.01034C2.69097 9.32978 2.69092 14.7117 6.01041 18.0312C9.32989 21.3506 14.7118 21.3506 18.0312 18.0312ZM17.3241 17.3241C20.2531 14.3951 20.253 9.64635 17.3241 6.71745C14.3952 3.78855 9.64646 3.78851 6.71751 6.71745C3.78857 9.64639 3.78861 14.3952 6.71751 17.3241C9.64641 20.253 14.3952 20.253 17.3241 17.3241Z" fill="#707683"/>
<path d="M7.52082 12.0207C7.52082 12.2969 7.74468 12.5207 8.02082 12.5207H11.5208V16.0207C11.5208 16.2969 11.7447 16.5207 12.0208 16.5207C12.297 16.5207 12.5208 16.2969 12.5208 16.0207V12.5207L16.0208 12.5207C16.297 12.5207 16.5208 12.2969 16.5208 12.0207C16.5208 11.7446 16.297 11.5207 16.0208 11.5207H12.5208L12.5208 8.02075C12.5208 7.7446 12.297 7.52075 12.0208 7.52075C11.7447 7.52075 11.5208 7.7446 11.5208 8.02075V11.5207H8.02082C7.74468 11.5207 7.52082 11.7446 7.52082 12.0207Z" fill="#707683"/>
<path d="M34.222 13.7734H30.6478L29.845 16H28.6849L31.9427 7.46875H32.9271L36.1907 16H35.0364L34.222 13.7734ZM30.9876 12.8477H33.888L32.4349 8.85742L30.9876 12.8477ZM37.0256 12.7773C37.0256 11.8047 37.256 11.0234 37.717 10.4336C38.1779 9.83984 38.7814 9.54297 39.5275 9.54297C40.2697 9.54297 40.8576 9.79688 41.2912 10.3047V7H42.3752V16H41.3791L41.3264 15.3203C40.8928 15.8516 40.2893 16.1172 39.5158 16.1172C38.7814 16.1172 38.1818 15.8164 37.717 15.2148C37.256 14.6133 37.0256 13.8281 37.0256 12.8594V12.7773ZM38.1096 12.9004C38.1096 13.6191 38.258 14.1816 38.5549 14.5879C38.8518 14.9941 39.2619 15.1973 39.7853 15.1973C40.4728 15.1973 40.9748 14.8887 41.2912 14.2715V11.3594C40.967 10.7617 40.4689 10.4629 39.7971 10.4629C39.2658 10.4629 38.8518 10.668 38.5549 11.0781C38.258 11.4883 38.1096 12.0957 38.1096 12.9004ZM43.919 12.7773C43.919 11.8047 44.1495 11.0234 44.6104 10.4336C45.0714 9.83984 45.6749 9.54297 46.421 9.54297C47.1632 9.54297 47.751 9.79688 48.1846 10.3047V7H49.2686V16H48.2725L48.2198 15.3203C47.7862 15.8516 47.1827 16.1172 46.4093 16.1172C45.6749 16.1172 45.0753 15.8164 44.6104 15.2148C44.1495 14.6133 43.919 13.8281 43.919 12.8594V12.7773ZM45.003 12.9004C45.003 13.6191 45.1514 14.1816 45.4483 14.5879C45.7452 14.9941 46.1553 15.1973 46.6788 15.1973C47.3663 15.1973 47.8682 14.8887 48.1846 14.2715V11.3594C47.8604 10.7617 47.3624 10.4629 46.6905 10.4629C46.1593 10.4629 45.7452 10.668 45.4483 11.0781C45.1514 11.4883 45.003 12.0957 45.003 12.9004ZM54.3426 16V7.46875H56.7508C57.493 7.46875 58.1493 7.63281 58.7196 7.96094C59.2899 8.28906 59.7293 8.75586 60.0379 9.36133C60.3504 9.9668 60.5086 10.6621 60.5125 11.4473V11.9922C60.5125 12.7969 60.3563 13.502 60.0438 14.1074C59.7352 14.7129 59.2918 15.1777 58.7137 15.502C58.1395 15.8262 57.4696 15.9922 56.7039 16H54.3426ZM55.4676 8.39453V15.0801H56.6512C57.5184 15.0801 58.1922 14.8105 58.6727 14.2715C59.1571 13.7324 59.3993 12.9648 59.3993 11.9688V11.4707C59.3993 10.502 59.1707 9.75 58.7137 9.21484C58.2606 8.67578 57.616 8.40234 56.7801 8.39453H55.4676ZM65.2321 10.6328C65.0681 10.6055 64.8903 10.5918 64.6989 10.5918C63.988 10.5918 63.5056 10.8945 63.2517 11.5V16H62.1677V9.66016H63.2224L63.24 10.3926C63.5954 9.82617 64.0993 9.54297 64.7517 9.54297C64.9626 9.54297 65.1228 9.57031 65.2321 9.625V10.6328ZM70.2682 15.373C69.8463 15.8691 69.2271 16.1172 68.4107 16.1172C67.735 16.1172 67.2193 15.9219 66.8639 15.5312C66.5123 15.1367 66.3346 14.5547 66.3307 13.7852V9.66016H67.4146V13.7559C67.4146 14.7168 67.8053 15.1973 68.5865 15.1973C69.4146 15.1973 69.9654 14.8887 70.2389 14.2715V9.66016H71.3228V16H70.2916L70.2682 15.373ZM72.8374 12.7773C72.8374 11.7891 73.0659 11.0039 73.5229 10.4219C73.98 9.83594 74.5854 9.54297 75.3393 9.54297C76.1128 9.54297 76.7163 9.81641 77.1499 10.3633L77.2026 9.66016H78.1928V15.8477C78.1928 16.668 77.9487 17.3145 77.4604 17.7871C76.976 18.2598 76.3237 18.4961 75.5034 18.4961C75.0464 18.4961 74.5991 18.3984 74.1616 18.2031C73.7241 18.0078 73.3901 17.7402 73.1596 17.4004L73.7221 16.75C74.187 17.3242 74.7553 17.6113 75.4272 17.6113C75.9546 17.6113 76.3647 17.4629 76.6577 17.166C76.9546 16.8691 77.103 16.4512 77.103 15.9121V15.3672C76.6694 15.8672 76.0776 16.1172 75.3276 16.1172C74.5854 16.1172 73.9839 15.8184 73.5229 15.2207C73.0659 14.623 72.8374 13.8086 72.8374 12.7773ZM73.9272 12.9004C73.9272 13.6152 74.0737 14.1777 74.3667 14.5879C74.6596 14.9941 75.0698 15.1973 75.5971 15.1973C76.2807 15.1973 76.7827 14.8867 77.103 14.2656V11.3711C76.771 10.7656 76.2729 10.4629 75.6089 10.4629C75.0815 10.4629 74.6694 10.668 74.3725 11.0781C74.0757 11.4883 73.9272 12.0957 73.9272 12.9004ZM83.6449 14.3184C83.6449 14.0254 83.5335 13.7988 83.3109 13.6387C83.0921 13.4746 82.7074 13.334 82.1566 13.2168C81.6097 13.0996 81.1742 12.959 80.85 12.7949C80.5296 12.6309 80.2914 12.4355 80.1351 12.209C79.9828 11.9824 79.9066 11.7129 79.9066 11.4004C79.9066 10.8809 80.1253 10.4414 80.5628 10.082C81.0042 9.72266 81.5667 9.54297 82.2503 9.54297C82.9691 9.54297 83.5511 9.72852 83.9964 10.0996C84.4457 10.4707 84.6703 10.9453 84.6703 11.5234H83.5804C83.5804 11.2266 83.4535 10.9707 83.1996 10.7559C82.9496 10.541 82.6332 10.4336 82.2503 10.4336C81.8558 10.4336 81.5472 10.5195 81.3246 10.6914C81.1019 10.8633 80.9906 11.0879 80.9906 11.3652C80.9906 11.627 81.0941 11.8242 81.3011 11.957C81.5082 12.0898 81.8812 12.2168 82.4203 12.3379C82.9632 12.459 83.4027 12.6035 83.7386 12.7715C84.0746 12.9395 84.3226 13.1426 84.4828 13.3809C84.6468 13.6152 84.7289 13.9023 84.7289 14.2422C84.7289 14.8086 84.5023 15.2637 84.0492 15.6074C83.596 15.9473 83.0082 16.1172 82.2855 16.1172C81.7777 16.1172 81.3285 16.0273 80.9378 15.8477C80.5472 15.668 80.2406 15.418 80.0179 15.0977C79.7992 14.7734 79.6898 14.4238 79.6898 14.0488H80.7738C80.7933 14.4121 80.9378 14.7012 81.2074 14.916C81.4808 15.127 81.8402 15.2324 82.2855 15.2324C82.6957 15.2324 83.0238 15.1504 83.2699 14.9863C83.5199 14.8184 83.6449 14.5957 83.6449 14.3184Z" fill="#707683"/>
<line x1="28.5208" y1="18.5" x2="85.5208" y2="18.5" stroke="#707683" stroke-dasharray="1 1"/>
</svg>
