<svg width="146" height="25" viewBox="0 0 146 25" fill="none" xmlns="http://www.w3.org/2000/svg">
<path fill-rule="evenodd" clip-rule="evenodd" d="M18.0312 18.0312C21.3507 14.7118 21.3507 9.32989 18.0312 6.01041C14.7117 2.69092 9.32985 2.69097 6.01041 6.01041C2.69097 9.32985 2.69092 14.7117 6.01041 18.0312C9.32989 21.3507 14.7118 21.3507 18.0312 18.0312ZM17.3241 17.3241C20.2531 14.3952 20.253 9.64641 17.3241 6.71751C14.3952 3.78861 9.64646 3.78857 6.71751 6.71751C3.78857 9.64646 3.78861 14.3952 6.71751 17.3241C9.64641 20.253 14.3952 20.2531 17.3241 17.3241Z" fill="#707683"/>
<path d="M7.52082 12.0208C7.52082 12.2969 7.74468 12.5208 8.02082 12.5208H11.5208V16.0208C11.5208 16.2969 11.7447 16.5208 12.0208 16.5208C12.297 16.5208 12.5208 16.2969 12.5208 16.0208V12.5208L16.0208 12.5208C16.297 12.5208 16.5208 12.2969 16.5208 12.0208C16.5208 11.7447 16.297 11.5208 16.0208 11.5208H12.5208L12.5208 8.02081C12.5208 7.74466 12.297 7.52081 12.0208 7.52081C11.7447 7.52081 11.5208 7.74467 11.5208 8.02081V11.5208H8.02082C7.74468 11.5208 7.52082 11.7447 7.52082 12.0208Z" fill="#707683"/>
<path d="M34.2207 14.2943H30.6465L29.8438 16.5209H28.6836L31.9414 7.98962H32.9258L36.1895 16.5209H35.0352L34.2207 14.2943ZM30.9863 13.3685H33.8867L32.4336 9.3783L30.9863 13.3685ZM37.0243 13.2982C37.0243 12.3256 37.2548 11.5443 37.7157 10.9545C38.1766 10.3607 38.7802 10.0638 39.5262 10.0638C40.2684 10.0638 40.8563 10.3177 41.2899 10.8256V7.52087H42.3739V16.5209H41.3778L41.3251 15.8412C40.8915 16.3724 40.288 16.6381 39.5145 16.6381C38.7802 16.6381 38.1805 16.3373 37.7157 15.7357C37.2548 15.1342 37.0243 14.349 37.0243 13.3802V13.2982ZM38.1083 13.4213C38.1083 14.14 38.2567 14.7025 38.5536 15.1088C38.8505 15.515 39.2606 15.7181 39.7841 15.7181C40.4716 15.7181 40.9735 15.4095 41.2899 14.7924V11.8802C40.9657 11.2826 40.4677 10.9838 39.7958 10.9838C39.2645 10.9838 38.8505 11.1888 38.5536 11.599C38.2567 12.0092 38.1083 12.6166 38.1083 13.4213ZM43.9177 13.2982C43.9177 12.3256 44.1482 11.5443 44.6091 10.9545C45.0701 10.3607 45.6736 10.0638 46.4197 10.0638C47.1619 10.0638 47.7498 10.3177 48.1834 10.8256V7.52087H49.2673V16.5209H48.2712L48.2185 15.8412C47.7849 16.3724 47.1814 16.6381 46.408 16.6381C45.6736 16.6381 45.074 16.3373 44.6091 15.7357C44.1482 15.1342 43.9177 14.349 43.9177 13.3802V13.2982ZM45.0017 13.4213C45.0017 14.14 45.1502 14.7025 45.447 15.1088C45.7439 15.515 46.1541 15.7181 46.6775 15.7181C47.365 15.7181 47.867 15.4095 48.1834 14.7924V11.8802C47.8591 11.2826 47.3611 10.9838 46.6892 10.9838C46.158 10.9838 45.7439 11.1888 45.447 11.599C45.1502 12.0092 45.0017 12.6166 45.0017 13.4213ZM60.6167 13.8138C60.5112 14.7162 60.1773 15.4135 59.6148 15.9056C59.0562 16.3939 58.312 16.6381 57.3823 16.6381C56.3745 16.6381 55.5659 16.2767 54.9566 15.5541C54.3511 14.8314 54.0484 13.8646 54.0484 12.6537V11.8334C54.0484 11.0404 54.189 10.3431 54.4702 9.74158C54.7554 9.14001 55.1577 8.67908 55.6773 8.35876C56.1968 8.03455 56.7984 7.87244 57.482 7.87244C58.3882 7.87244 59.1148 8.12634 59.6616 8.63416C60.2085 9.13806 60.5269 9.83728 60.6167 10.7318H59.4859C59.3882 10.0521 59.1753 9.55994 58.8472 9.25525C58.523 8.95056 58.0679 8.79822 57.482 8.79822C56.7632 8.79822 56.1987 9.06384 55.7886 9.59509C55.3823 10.1263 55.1792 10.8822 55.1792 11.8627V12.6888C55.1792 13.6146 55.3726 14.351 55.7593 14.8978C56.146 15.4447 56.687 15.7181 57.3823 15.7181C58.0073 15.7181 58.4859 15.5775 58.8179 15.2963C59.1538 15.0111 59.3765 14.517 59.4859 13.8138H60.6167ZM66.0219 15.8939C65.6 16.39 64.9809 16.6381 64.1645 16.6381C63.4887 16.6381 62.973 16.4427 62.6176 16.0521C62.266 15.6576 62.0883 15.0756 62.0844 14.306V10.181H63.1684V14.2767C63.1684 15.2377 63.559 15.7181 64.3402 15.7181C65.1684 15.7181 65.7191 15.4095 65.9926 14.7924V10.181H67.0766V16.5209H66.0453L66.0219 15.8939ZM72.5403 14.8392C72.5403 14.5463 72.429 14.3197 72.2063 14.1595C71.9876 13.9955 71.6028 13.8549 71.052 13.7377C70.5052 13.6205 70.0696 13.4799 69.7454 13.3158C69.4251 13.1517 69.1868 12.9564 69.0305 12.7299C68.8782 12.5033 68.802 12.2338 68.802 11.9213C68.802 11.4017 69.0208 10.9623 69.4583 10.6029C69.8997 10.2435 70.4622 10.0638 71.1458 10.0638C71.8645 10.0638 72.4466 10.2494 72.8919 10.6205C73.3411 10.9916 73.5657 11.4662 73.5657 12.0443H72.4759C72.4759 11.7474 72.3489 11.4916 72.095 11.2767C71.845 11.0619 71.5286 10.9545 71.1458 10.9545C70.7513 10.9545 70.4427 11.0404 70.22 11.2123C69.9973 11.3842 69.886 11.6088 69.886 11.8861C69.886 12.1478 69.9895 12.3451 70.1966 12.4779C70.4036 12.6107 70.7766 12.7377 71.3157 12.8588C71.8587 12.9799 72.2981 13.1244 72.6341 13.2924C72.97 13.4603 73.218 13.6635 73.3782 13.9017C73.5423 14.1361 73.6243 14.4232 73.6243 14.7631C73.6243 15.3295 73.3977 15.7845 72.9446 16.1283C72.4915 16.4681 71.9036 16.6381 71.1809 16.6381C70.6731 16.6381 70.2239 16.5482 69.8333 16.3685C69.4427 16.1888 69.136 15.9388 68.9134 15.6185C68.6946 15.2943 68.5852 14.9447 68.5852 14.5697H69.6692C69.6888 14.933 69.8333 15.222 70.1028 15.4369C70.3763 15.6478 70.7356 15.7533 71.1809 15.7533C71.5911 15.7533 71.9192 15.6713 72.1653 15.5072C72.4153 15.3392 72.5403 15.1166 72.5403 14.8392ZM76.6271 8.64587V10.181H77.8107V11.0189H76.6271V14.9506C76.6271 15.2045 76.6798 15.3959 76.7853 15.5248C76.8908 15.6498 77.0705 15.7123 77.3244 15.7123C77.4494 15.7123 77.6213 15.6888 77.84 15.642V16.5209C77.5548 16.599 77.2775 16.6381 77.008 16.6381C76.5236 16.6381 76.1584 16.4916 75.9123 16.1986C75.6662 15.9056 75.5431 15.4896 75.5431 14.9506V11.0189H74.3888V10.181H75.5431V8.64587H76.6271ZM78.7979 13.2924C78.7979 12.6713 78.919 12.1127 79.1612 11.6166C79.4073 11.1205 79.7471 10.7377 80.1807 10.4681C80.6182 10.1986 81.1162 10.0638 81.6748 10.0638C82.5381 10.0638 83.2354 10.3627 83.7666 10.9603C84.3018 11.558 84.5694 12.3529 84.5694 13.3451V13.4213C84.5694 14.0385 84.4502 14.5931 84.212 15.0853C83.9776 15.5736 83.6397 15.9545 83.1983 16.2279C82.7608 16.5013 82.2569 16.6381 81.6866 16.6381C80.8272 16.6381 80.1299 16.3392 79.5948 15.7416C79.0635 15.1439 78.7979 14.3529 78.7979 13.3685V13.2924ZM79.8877 13.4213C79.8877 14.1244 80.0498 14.6888 80.3741 15.1146C80.7022 15.5404 81.1397 15.7533 81.6866 15.7533C82.2373 15.7533 82.6748 15.5385 82.9991 15.1088C83.3233 14.6752 83.4854 14.0697 83.4854 13.2924C83.4854 12.597 83.3194 12.0345 82.9873 11.6049C82.6592 11.1713 82.2217 10.9545 81.6748 10.9545C81.1397 10.9545 80.708 11.1674 80.3799 11.5931C80.0518 12.0189 79.8877 12.6283 79.8877 13.4213ZM87.0683 10.181L87.0976 10.8842C87.5624 10.3373 88.1894 10.0638 88.9784 10.0638C89.8652 10.0638 90.4687 10.4037 90.789 11.0834C90.9999 10.7787 91.2734 10.5326 91.6093 10.3451C91.9491 10.1576 92.3495 10.0638 92.8105 10.0638C94.2011 10.0638 94.9081 10.8002 94.9316 12.2728V16.5209H93.8476V12.3373C93.8476 11.8842 93.7441 11.5463 93.537 11.3236C93.33 11.097 92.9823 10.9838 92.4941 10.9838C92.0917 10.9838 91.7577 11.1049 91.4921 11.347C91.2265 11.5853 91.0722 11.9076 91.0292 12.3138V16.5209H89.9394V12.3666C89.9394 11.4447 89.4882 10.9838 88.5859 10.9838C87.8749 10.9838 87.3886 11.2865 87.1269 11.892V16.5209H86.0429V10.181H87.0683ZM106.515 16.5209H105.384L101.09 9.94666V16.5209H99.9587V7.98962H101.09L105.396 14.5931V7.98962H106.515V16.5209ZM111.094 16.6381C110.235 16.6381 109.536 16.3568 108.997 15.7943C108.458 15.2279 108.188 14.472 108.188 13.5267V13.3275C108.188 12.6986 108.307 12.1381 108.545 11.6459C108.788 11.1498 109.124 10.7631 109.553 10.4857C109.987 10.2045 110.456 10.0638 110.96 10.0638C111.784 10.0638 112.424 10.3353 112.881 10.8783C113.338 11.4213 113.567 12.1986 113.567 13.2103V13.6615H109.272C109.288 14.2865 109.469 14.7924 109.817 15.1791C110.169 15.5619 110.614 15.7533 111.153 15.7533C111.536 15.7533 111.86 15.6752 112.126 15.5189C112.391 15.3627 112.624 15.1556 112.823 14.8978L113.485 15.4135C112.954 16.2299 112.157 16.6381 111.094 16.6381ZM110.96 10.9545C110.522 10.9545 110.155 11.1146 109.858 11.4349C109.561 11.7513 109.378 12.1967 109.307 12.7709H112.483V12.6888C112.452 12.1381 112.303 11.7123 112.038 11.4115C111.772 11.1068 111.413 10.9545 110.96 10.9545ZM116.417 8.64587V10.181H117.601V11.0189H116.417V14.9506C116.417 15.2045 116.47 15.3959 116.576 15.5248C116.681 15.6498 116.861 15.7123 117.115 15.7123C117.24 15.7123 117.412 15.6888 117.63 15.642V16.5209C117.345 16.599 117.068 16.6381 116.798 16.6381C116.314 16.6381 115.949 16.4916 115.703 16.1986C115.456 15.9056 115.333 15.4896 115.333 14.9506V11.0189H114.179V10.181H115.333V8.64587H116.417ZM124.606 15.0267L125.825 10.181H126.909L125.063 16.5209H124.184L122.643 11.7162L121.143 16.5209H120.264L118.424 10.181H119.502L120.75 14.9271L122.227 10.181H123.1L124.606 15.0267ZM127.849 13.2924C127.849 12.6713 127.97 12.1127 128.212 11.6166C128.458 11.1205 128.798 10.7377 129.232 10.4681C129.669 10.1986 130.167 10.0638 130.726 10.0638C131.589 10.0638 132.286 10.3627 132.818 10.9603C133.353 11.558 133.62 12.3529 133.62 13.3451V13.4213C133.62 14.0385 133.501 14.5931 133.263 15.0853C133.029 15.5736 132.691 15.9545 132.249 16.2279C131.812 16.5013 131.308 16.6381 130.738 16.6381C129.878 16.6381 129.181 16.3392 128.646 15.7416C128.114 15.1439 127.849 14.3529 127.849 13.3685V13.2924ZM128.939 13.4213C128.939 14.1244 129.101 14.6888 129.425 15.1146C129.753 15.5404 130.191 15.7533 130.738 15.7533C131.288 15.7533 131.726 15.5385 132.05 15.1088C132.374 14.6752 132.536 14.0697 132.536 13.2924C132.536 12.597 132.37 12.0345 132.038 11.6049C131.71 11.1713 131.273 10.9545 130.726 10.9545C130.191 10.9545 129.759 11.1674 129.431 11.5931C129.103 12.0189 128.939 12.6283 128.939 13.4213ZM138.164 11.1537C138 11.1263 137.822 11.1127 137.631 11.1127C136.92 11.1127 136.438 11.4154 136.184 12.0209V16.5209H135.1V10.181H136.154L136.172 10.9135C136.527 10.347 137.031 10.0638 137.684 10.0638C137.895 10.0638 138.055 10.0912 138.164 10.1459V11.1537ZM141.056 13.5853L140.376 14.2943V16.5209H139.292V7.52087H140.376V12.9642L140.956 12.267L142.931 10.181H144.249L141.782 12.8295L144.536 16.5209H143.265L141.056 13.5853Z" fill="#707683"/>
<line x1="28.5195" y1="19.0209" x2="145.52" y2="19.0209" stroke="#707683" stroke-dasharray="1 1"/>
</svg>
