<svg width="9" height="6" viewBox="0 0 9 6" fill="none" xmlns="http://www.w3.org/2000/svg">
<path d="M0.527597 0.942758C0.835571 0.627905 1.26433 0.603197 1.64082 0.942758L4.40129 3.58795L7.16175 0.942758C7.53824 0.603197 7.96771 0.627905 8.27357 0.942758C8.58154 1.25691 8.56176 1.78778 8.27357 2.08286C7.98678 2.37795 4.9572 5.26104 4.9572 5.26104C4.88505 5.33577 4.79858 5.39521 4.70295 5.4358C4.60732 5.47639 4.50448 5.49731 4.40058 5.49731C4.29668 5.49731 4.19385 5.47639 4.09821 5.4358C4.00258 5.39521 3.91611 5.33577 3.84397 5.26104C3.84397 5.26104 0.815793 2.37795 0.527597 2.08287C0.238694 1.78778 0.219623 1.25691 0.527597 0.942758Z" fill="#323C47"/>
</svg>
