<svg width="14" height="12" viewBox="0 0 14 12" fill="none" xmlns="http://www.w3.org/2000/svg">
<g clip-path="url(#clip0)">
<path d="M9.31944 1.95084L11.4074 4.0649C11.4954 4.15396 11.4954 4.29927 11.4074 4.38833L6.35185 9.50708L4.2037 9.74849C3.91667 9.7813 3.67361 9.5352 3.70602 9.24458L3.94444 7.06958L9 1.95084C9.08796 1.86177 9.23148 1.86177 9.31944 1.95084ZM13.0694 1.41412L11.9398 0.270369C11.588 -0.085881 11.0162 -0.085881 10.662 0.270369L9.84259 1.10006C9.75463 1.18912 9.75463 1.33443 9.84259 1.42349L11.9306 3.53755C12.0185 3.62662 12.162 3.62662 12.25 3.53755L13.0694 2.70787C13.4213 2.34927 13.4213 1.77037 13.0694 1.41412ZM8.88889 8.11489V10.5008H1.48148V3.00084H6.80093C6.875 3.00084 6.94444 2.97037 6.99769 2.9188L7.92361 1.9813C8.09954 1.80318 7.97454 1.50084 7.72685 1.50084H1.11111C0.497685 1.50084 0 2.00474 0 2.62584V10.8758C0 11.4969 0.497685 12.0008 1.11111 12.0008H9.25926C9.87269 12.0008 10.3704 11.4969 10.3704 10.8758V7.17739C10.3704 6.92661 10.0718 6.80239 9.89583 6.97818L8.96991 7.91567C8.91898 7.96958 8.88889 8.03989 8.88889 8.11489Z" fill="#C4C4C4"/>
</g>
<defs>
<clipPath id="clip0">
<rect width="13.3333" height="12" fill="white"/>
</clipPath>
</defs>
</svg>
