<svg width="16" height="12" viewBox="0 0 16 12" fill="none" xmlns="http://www.w3.org/2000/svg">
<path d="M15.6549 5.60078C14.172 2.70754 11.2364 0.75 7.87501 0.75C4.51365 0.75 1.5772 2.70891 0.0951718 5.60105C0.0326208 5.72479 3.05176e-05 5.86149 3.05176e-05 6.00014C3.05176e-05 6.13878 0.0326208 6.27549 0.0951718 6.39922C1.57802 9.29246 4.51365 11.25 7.87501 11.25C11.2364 11.25 14.1728 9.29109 15.6549 6.39895C15.7174 6.27521 15.75 6.13851 15.75 5.99986C15.75 5.86122 15.7174 5.72451 15.6549 5.60078ZM7.87501 9.9375C7.09625 9.9375 6.33498 9.70657 5.68746 9.27391C5.03994 8.84125 4.53526 8.2263 4.23724 7.50682C3.93922 6.78733 3.86124 5.99563 4.01317 5.23183C4.1651 4.46803 4.54011 3.76644 5.09078 3.21577C5.64145 2.6651 6.34305 2.29009 7.10685 2.13816C7.87065 1.98623 8.66235 2.0642 9.38183 2.36222C10.1013 2.66024 10.7163 3.16492 11.1489 3.81244C11.5816 4.45996 11.8125 5.22124 11.8125 6C11.8128 6.51715 11.7111 7.02928 11.5133 7.50711C11.3155 7.98495 11.0255 8.41911 10.6598 8.78479C10.2941 9.15047 9.85996 9.4405 9.38213 9.63829C8.9043 9.83608 8.39217 9.93775 7.87501 9.9375ZM7.87501 3.375C7.64072 3.37827 7.40793 3.41313 7.18294 3.47863C7.3684 3.73065 7.45739 4.04079 7.43379 4.3528C7.41018 4.66481 7.27555 4.95802 7.05429 5.17928C6.83304 5.40053 6.53982 5.53517 6.22781 5.55877C5.9158 5.58237 5.60567 5.49338 5.35365 5.30793C5.21014 5.83665 5.23604 6.39705 5.42772 6.91027C5.61939 7.42349 5.96718 7.86369 6.42213 8.16889C6.87709 8.4741 7.4163 8.62895 7.96387 8.61166C8.51145 8.59436 9.03981 8.40578 9.47459 8.07247C9.90937 7.73915 10.2287 7.27789 10.3876 6.75359C10.5465 6.22929 10.537 5.66837 10.3604 5.14977C10.1838 4.63116 9.849 4.18099 9.40316 3.86262C8.95731 3.54425 8.42286 3.37371 7.87501 3.375Z" fill="#707683"/>
</svg>
