<svg width="11" height="11" viewBox="0 0 11 11" fill="none" xmlns="http://www.w3.org/2000/svg">
<path d="M0.6875 9.625C0.6875 10.0053 0.994727 10.3125 1.375 10.3125H9.625C10.0053 10.3125 10.3125 10.0053 10.3125 9.625V3.4375H0.6875V9.625ZM4.125 5.07031C4.125 4.92852 4.24102 4.8125 4.38281 4.8125H6.61719C6.75898 4.8125 6.875 4.92852 6.875 5.07031V5.24219C6.875 5.38398 6.75898 5.5 6.61719 5.5H4.38281C4.24102 5.5 4.125 5.38398 4.125 5.24219V5.07031ZM10.3125 0.6875H0.6875C0.307227 0.6875 0 0.994727 0 1.375V2.40625C0 2.59531 0.154687 2.75 0.34375 2.75H10.6562C10.8453 2.75 11 2.59531 11 2.40625V1.375C11 0.994727 10.6928 0.6875 10.3125 0.6875Z" fill="#11861A"/>
</svg>
