<svg width="13" height="13" viewBox="0 0 13 13" fill="none" xmlns="http://www.w3.org/2000/svg">
<path d="M6.61597 0C3.47515 0 0.928467 2.54668 0.928467 5.6875C0.928467 8.82832 3.47515 11.375 6.61597 11.375C9.75679 11.375 12.3035 8.82832 12.3035 5.6875C12.3035 2.54668 9.75679 0 6.61597 0ZM9.05347 5.99219C9.05347 6.04805 9.00776 6.09375 8.9519 6.09375H7.02222V8.02344C7.02222 8.0793 6.97651 8.125 6.92065 8.125H6.31128C6.25542 8.125 6.20972 8.0793 6.20972 8.02344V6.09375H4.28003C4.22417 6.09375 4.17847 6.04805 4.17847 5.99219V5.38281C4.17847 5.32695 4.22417 5.28125 4.28003 5.28125H6.20972V3.35156C6.20972 3.2957 6.25542 3.25 6.31128 3.25H6.92065C6.97651 3.25 7.02222 3.2957 7.02222 3.35156V5.28125H8.9519C9.00776 5.28125 9.05347 5.32695 9.05347 5.38281V5.99219Z" fill="#11861A"/>
</svg>
