<svg width="11" height="11" viewBox="0 0 11 11" fill="none" xmlns="http://www.w3.org/2000/svg">
<path fill-rule="evenodd" clip-rule="evenodd" d="M11 5.5C11 6.95869 10.4205 8.35764 9.38909 9.38909C8.35764 10.4205 6.95869 11 5.5 11C4.04131 11 2.64236 10.4205 1.61091 9.38909C0.579463 8.35764 0 6.95869 0 5.5C0 4.04131 0.579463 2.64236 1.61091 1.61091C2.64236 0.579463 4.04131 0 5.5 0C6.95869 0 8.35764 0.579463 9.38909 1.61091C10.4205 2.64236 11 4.04131 11 5.5ZM8.14962 3.33713C8.21417 3.27258 8.25043 3.18503 8.25043 3.09375C8.25043 3.00247 8.21417 2.91492 8.14962 2.85037C8.08508 2.78583 7.99753 2.74957 7.90625 2.74957C7.81497 2.74957 7.72742 2.78583 7.66288 2.85037L5.5 5.01394L3.33713 2.85037C3.30516 2.81841 3.26722 2.79306 3.22546 2.77577C3.18371 2.75847 3.13895 2.74957 3.09375 2.74957C3.04855 2.74957 3.00379 2.75847 2.96204 2.77577C2.92028 2.79306 2.88234 2.81841 2.85037 2.85037C2.81841 2.88234 2.79306 2.92028 2.77577 2.96204C2.75847 3.00379 2.74957 3.04855 2.74957 3.09375C2.74957 3.13895 2.75847 3.18371 2.77577 3.22546C2.79306 3.26722 2.81841 3.30516 2.85037 3.33713L5.01394 5.5L2.85037 7.66288C2.78583 7.72742 2.74957 7.81497 2.74957 7.90625C2.74957 7.99753 2.78583 8.08508 2.85037 8.14962C2.91492 8.21417 3.00247 8.25043 3.09375 8.25043C3.18503 8.25043 3.27258 8.21417 3.33713 8.14962L5.5 5.98606L7.66288 8.14962C7.69484 8.18159 7.73278 8.20694 7.77454 8.22423C7.81629 8.24153 7.86105 8.25043 7.90625 8.25043C7.95145 8.25043 7.99621 8.24153 8.03796 8.22423C8.07972 8.20694 8.11766 8.18159 8.14962 8.14962C8.18159 8.11766 8.20694 8.07972 8.22423 8.03796C8.24153 7.99621 8.25043 7.95145 8.25043 7.90625C8.25043 7.86105 8.24153 7.81629 8.22423 7.77454C8.20694 7.73278 8.18159 7.69484 8.14962 7.66288L5.98606 5.5L8.14962 3.33713Z" fill="#11861A"/>
</svg>
