<svg width="17" height="16" viewBox="0 0 17 16" fill="none" xmlns="http://www.w3.org/2000/svg">
<g clip-path="url(#clip0)">
<path d="M16.0358 8C16.0358 12.2812 12.5657 15.75 8.28577 15.75C4.00586 15.75 0.535767 12.2812 0.535767 8C0.535767 3.72134 4.00586 0.25 8.28577 0.25C12.5657 0.25 16.0358 3.72134 16.0358 8ZM8.49374 2.8125C6.7907 2.8125 5.70452 3.52991 4.85158 4.80494C4.74108 4.97012 4.77805 5.19291 4.93642 5.313L6.02077 6.13519C6.18342 6.25853 6.41517 6.22919 6.54155 6.06887C7.0998 5.36081 7.48258 4.95022 8.33227 4.95022C8.97067 4.95022 9.76033 5.36109 9.76033 5.98016C9.76033 6.44816 9.37399 6.6885 8.74364 7.04191C8.00852 7.454 7.03577 7.96691 7.03577 9.25V9.375C7.03577 9.58209 7.20367 9.75 7.41077 9.75H9.16077C9.36786 9.75 9.53577 9.58209 9.53577 9.375V9.33334C9.53577 8.44391 12.1353 8.40687 12.1353 6C12.1353 4.18744 10.2552 2.8125 8.49374 2.8125ZM8.28577 10.5625C7.49311 10.5625 6.84827 11.2073 6.84827 12C6.84827 12.7926 7.49311 13.4375 8.28577 13.4375C9.07842 13.4375 9.72327 12.7926 9.72327 12C9.72327 11.2073 9.07842 10.5625 8.28577 10.5625Z" fill="#5F80B9"/>
</g>
<defs>
<clipPath id="clip0">
<rect width="16" height="16" fill="white" transform="translate(0.285767)"/>
</clipPath>
</defs>
</svg>
