<svg width="19" height="16" viewBox="0 0 19 16" fill="none" xmlns="http://www.w3.org/2000/svg">
<path fill-rule="evenodd" clip-rule="evenodd" d="M6.71429 0C6.162 0 5.71429 0.447716 5.71429 1V4.71429C5.71429 5.26657 6.162 5.71429 6.71428 5.71429H8V10.2857H1C0.447715 10.2857 0 10.7334 0 11.2857V12.7143C0 13.2666 0.447715 13.7143 1 13.7143H17.2857C17.838 13.7143 18.2857 13.2666 18.2857 12.7143V11.2857C18.2857 10.7334 17.838 10.2857 17.2857 10.2857H10.2857V5.71429H11.5714C12.1237 5.71429 12.5714 5.26657 12.5714 4.71428V1C12.5714 0.447715 12.1237 0 11.5714 0H6.71429ZM1.14286 15.4286C1.14286 15.113 1.39869 14.8571 1.71429 14.8571H16.5714C16.887 14.8571 17.1429 15.113 17.1429 15.4286C17.1429 15.7442 16.887 16 16.5714 16H1.71429C1.39869 16 1.14286 15.7442 1.14286 15.4286Z" fill="#5F80B9"/>
</svg>
