<svg width="12" height="13" viewBox="0 0 12 13" fill="none" xmlns="http://www.w3.org/2000/svg">
<g clip-path="url(#clip0)">
<path d="M10.7706 3.54549L8.80461 1.57951C8.59363 1.36853 8.30748 1.25 8.00911 1.25H1.7251C1.10377 1.25 0.600098 1.75367 0.600098 2.375V10.625C0.600098 11.2463 1.10377 11.75 1.7251 11.75H9.9751C10.5964 11.75 11.1001 11.2463 11.1001 10.625V4.34098C11.1001 4.04262 10.9816 3.75647 10.7706 3.54549ZM5.8501 10.25C5.02168 10.25 4.3501 9.57842 4.3501 8.75C4.3501 7.92158 5.02168 7.25 5.8501 7.25C6.67852 7.25 7.3501 7.92158 7.3501 8.75C7.3501 9.57842 6.67852 10.25 5.8501 10.25ZM8.1001 3.11281V5.46875C8.1001 5.62407 7.97417 5.75 7.81885 5.75H2.38135C2.22603 5.75 2.1001 5.62407 2.1001 5.46875V3.03125C2.1001 2.87593 2.22603 2.75 2.38135 2.75H7.73728C7.81189 2.75 7.88342 2.77962 7.93615 2.83238L8.01771 2.91395C8.04384 2.94006 8.06456 2.97106 8.07869 3.00518C8.09283 3.03931 8.1001 3.07588 8.1001 3.11281Z" fill="#1D54B4"/>
</g>
<defs>
<clipPath id="clip0">
<rect width="10.5" height="12" fill="white" transform="translate(0.600098 0.5)"/>
</clipPath>
</defs>
</svg>
