<svg width="16" height="16" viewBox="0 0 16 16" fill="none" xmlns="http://www.w3.org/2000/svg">
<path d="M8 0.761963C4.00289 0.761963 0.761902 4.00295 0.761902 8.00006C0.761902 11.9972 4.00289 15.2382 8 15.2382C11.9971 15.2382 15.2381 11.9972 15.2381 8.00006C15.2381 4.00295 11.9971 0.761963 8 0.761963ZM11.1263 5.63637L7.72372 10.3541C7.67617 10.4204 7.61347 10.4745 7.54084 10.5118C7.46821 10.5491 7.38773 10.5686 7.30608 10.5686C7.22442 10.5686 7.14394 10.5491 7.07131 10.5118C6.99868 10.4745 6.93599 10.4204 6.88843 10.3541L4.87372 7.56222C4.81233 7.47659 4.87372 7.35703 4.97874 7.35703H5.73648C5.90127 7.35703 6.05799 7.4362 6.15493 7.57191L7.30527 9.16817L9.84507 5.64606C9.942 5.51196 10.0971 5.43118 10.2635 5.43118H11.0213C11.1263 5.43118 11.1877 5.55074 11.1263 5.63637Z" fill="#80C483"/>
</svg>
