<svg width="15" height="14" viewBox="0 0 15 14" fill="none" xmlns="http://www.w3.org/2000/svg">
                        <path d="M14.6115 12.0316C15.085 12.9064 14.4906 14 13.5448 14H1.23287C0.285224 14 -0.306452 12.9047 0.16618 12.0316L6.3222 0.65584C6.79599 -0.219406 7.98265 -0.21782 8.45559 0.65584L14.6115 12.0316ZM7.3889 9.67969C6.73711 9.67969 6.20873 10.2428 6.20873 10.9375C6.20873 11.6322 6.73711 12.1953 7.3889 12.1953C8.04068 12.1953 8.56907 11.6322 8.56907 10.9375C8.56907 10.2428 8.04068 9.67969 7.3889 9.67969ZM6.26843 5.15851L6.45874 8.87726C6.46765 9.05127 6.60265 9.1875 6.76615 9.1875H8.01164C8.17515 9.1875 8.31015 9.05127 8.31905 8.87726L8.50937 5.15851C8.51899 4.97055 8.37857 4.8125 8.20196 4.8125H6.57581C6.3992 4.8125 6.25881 4.97055 6.26843 5.15851Z" />
                    </svg>